REM DIRINDEX 1\2,1\4,1\5,1\6,1\7,1\3\8,1\3\9,1\3\10
REM DIRNAME cjc113,folder01,folder02,folder03,folder04,folder05,folder06,folder07,folder08,folder09
TITLE ""
FILE "DB4500_5th_MK_01.mp3" MP3
  TRACK 01 AUDIO
    TITLE "6:cjc113_5965"
    INDEX 01 00:00:00
  TRACK 02 AUDIO
    TITLE "0:"
    INDEX 01 00:01:13
  TRACK 03 AUDIO
    TITLE "6:cjc113_5966"
    INDEX 01 00:01:22
  TRACK 04 AUDIO
    TITLE "0:"
    INDEX 01 00:02:38
  TRACK 05 AUDIO
    TITLE "6:cjc113_5967"
    INDEX 01 00:03:06
  TRACK 06 AUDIO
    TITLE "0:"
    INDEX 01 00:04:25
  TRACK 07 AUDIO
    TITLE "6:cjc113_5968"
    INDEX 01 00:04:31
  TRACK 08 AUDIO
    TITLE "0:"
    INDEX 01 00:05:54
  TRACK 09 AUDIO
    TITLE "6:cjc113_5969"
    INDEX 01 00:06:20
  TRACK 10 AUDIO
    TITLE "0:"
    INDEX 01 00:07:43
  TRACK 11 AUDIO
    TITLE "6:cjc113_5970"
    INDEX 01 00:07:52
  TRACK 12 AUDIO
    TITLE "0:"
    INDEX 01 00:09:08
  TRACK 13 AUDIO
    TITLE "6:cjc113_5971"
    INDEX 01 00:09:45
  TRACK 14 AUDIO
    TITLE "0:"
    INDEX 01 00:10:55
  TRACK 15 AUDIO
    TITLE "6:cjc113_5972"
    INDEX 01 00:10:61
  TRACK 16 AUDIO
    TITLE "0:"
    INDEX 01 00:12:34
  TRACK 17 AUDIO
    TITLE "6:cjc113_5973"
    INDEX 01 00:13:00
  TRACK 18 AUDIO
    TITLE "0:"
    INDEX 01 00:14:15
  TRACK 19 AUDIO
    TITLE "6:cjc113_5974"
    INDEX 01 00:14:19
  TRACK 20 AUDIO
    TITLE "0:"
    INDEX 01 00:16:16
  TRACK 21 AUDIO
    TITLE "6:cjc113_5975"
    INDEX 01 00:16:55
  TRACK 22 AUDIO
    TITLE "0:"
    INDEX 01 00:17:59
  TRACK 23 AUDIO
    TITLE "6:cjc113_5976"
    INDEX 01 00:17:69
  TRACK 24 AUDIO
    TITLE "0:"
    INDEX 01 00:20:16
  TRACK 25 AUDIO
    TITLE "6:cjc113_5977"
    INDEX 01 00:20:55
  TRACK 26 AUDIO
    TITLE "0:"
    INDEX 01 00:21:64
  TRACK 27 AUDIO
    TITLE "6:cjc113_5978"
    INDEX 01 00:21:72
  TRACK 28 AUDIO
    TITLE "0:"
    INDEX 01 00:24:39
  TRACK 29 AUDIO
    TITLE "6:cjc113_5979"
    INDEX 01 00:25:01
  TRACK 30 AUDIO
    TITLE "0:"
    INDEX 01 00:26:03
  TRACK 31 AUDIO
    TITLE "6:cjc113_5980"
    INDEX 01 00:26:09
  TRACK 32 AUDIO
    TITLE "0:"
    INDEX 01 00:28:31
  TRACK 33 AUDIO
    TITLE "6:cjc113_5981"
    INDEX 01 00:28:70
  TRACK 34 AUDIO
    TITLE "0:"
    INDEX 01 00:30:10
  TRACK 35 AUDIO
    TITLE "6:cjc113_5982"
    INDEX 01 00:30:16
  TRACK 36 AUDIO
    TITLE "0:"
    INDEX 01 00:32:43
  TRACK 37 AUDIO
    TITLE "6:cjc113_5983"
    INDEX 01 00:33:11
  TRACK 38 AUDIO
    TITLE "0:"
    INDEX 01 00:34:32
  TRACK 39 AUDIO
    TITLE "6:cjc113_5984"
    INDEX 01 00:34:42
  TRACK 40 AUDIO
    TITLE "0:"
    INDEX 01 00:37:10
  TRACK 41 AUDIO
    TITLE "6:cjc113_5985"
    INDEX 01 00:37:50
  TRACK 42 AUDIO
    TITLE "0:"
    INDEX 01 00:38:55
  TRACK 43 AUDIO
    TITLE "6:cjc113_5986"
    INDEX 01 00:38:63
  TRACK 44 AUDIO
    TITLE "0:"
    INDEX 01 00:39:74
  TRACK 45 AUDIO
    TITLE "6:cjc113_5987"
    INDEX 01 00:40:40
  TRACK 46 AUDIO
    TITLE "0:"
    INDEX 01 00:41:42
  TRACK 47 AUDIO
    TITLE "6:cjc113_5988"
    INDEX 01 00:41:49
  TRACK 48 AUDIO
    TITLE "0:"
    INDEX 01 00:43:01
  TRACK 49 AUDIO
    TITLE "6:cjc113_5989"
    INDEX 01 00:43:42
  TRACK 50 AUDIO
    TITLE "0:"
    INDEX 01 00:44:48
  TRACK 51 AUDIO
    TITLE "6:cjc113_5990"
    INDEX 01 00:44:56
  TRACK 52 AUDIO
    TITLE "0:"
    INDEX 01 00:45:71
  TRACK 53 AUDIO
    TITLE "6:cjc113_5991"
    INDEX 01 00:46:37
  TRACK 54 AUDIO
    TITLE "0:"
    INDEX 01 00:47:40
  TRACK 55 AUDIO
    TITLE "6:cjc113_5992"
    INDEX 01 00:47:48
  TRACK 56 AUDIO
    TITLE "0:"
    INDEX 01 00:48:42
  TRACK 57 AUDIO
    TITLE "6:cjc113_5993"
    INDEX 01 00:49:10
  TRACK 58 AUDIO
    TITLE "0:"
    INDEX 01 00:50:25
  TRACK 59 AUDIO
    TITLE "6:cjc113_5994"
    INDEX 01 00:50:33
  TRACK 60 AUDIO
    TITLE "0:"
    INDEX 01 00:51:54
  TRACK 61 AUDIO
    TITLE "6:cjc113_5995"
    INDEX 01 00:52:18
  TRACK 62 AUDIO
    TITLE "0:"
    INDEX 01 00:53:37
  TRACK 63 AUDIO
    TITLE "6:cjc113_5996"
    INDEX 01 00:53:45
  TRACK 64 AUDIO
    TITLE "0:"
    INDEX 01 00:54:62
  TRACK 65 AUDIO
    TITLE "6:cjc113_5997"
    INDEX 01 00:55:30
  TRACK 66 AUDIO
    TITLE "0:"
    INDEX 01 00:56:49
  TRACK 67 AUDIO
    TITLE "6:cjc113_5998"
    INDEX 01 00:56:57
  TRACK 68 AUDIO
    TITLE "0:"
    INDEX 01 00:58:09
  TRACK 69 AUDIO
    TITLE "6:cjc113_5999"
    INDEX 01 00:58:54
  TRACK 70 AUDIO
    TITLE "0:"
    INDEX 01 00:59:65
  TRACK 71 AUDIO
    TITLE "6:cjc113_6000"
    INDEX 01 00:59:73
  TRACK 72 AUDIO
    TITLE "0:"
    INDEX 01 01:01:36
  TRACK 73 AUDIO
    TITLE "6:cjc113_6001"
    INDEX 01 01:02:01
  TRACK 74 AUDIO
    TITLE "0:"
    INDEX 01 01:03:29
  TRACK 75 AUDIO
    TITLE "6:cjc113_6002"
    INDEX 01 01:03:37
  TRACK 76 AUDIO
    TITLE "0:"
    INDEX 01 01:06:04
  TRACK 77 AUDIO
    TITLE "6:cjc113_6003"
    INDEX 01 01:06:49
  TRACK 78 AUDIO
    TITLE "0:"
    INDEX 01 01:07:59
  TRACK 79 AUDIO
    TITLE "6:cjc113_6004"
    INDEX 01 01:07:70
  TRACK 80 AUDIO
    TITLE "0:"
    INDEX 01 01:10:02
  TRACK 81 AUDIO
    TITLE "6:cjc113_6005"
    INDEX 01 01:10:43
  TRACK 82 AUDIO
    TITLE "0:"
    INDEX 01 01:11:62
  TRACK 83 AUDIO
    TITLE "6:cjc113_6006"
    INDEX 01 01:11:66
  TRACK 84 AUDIO
    TITLE "0:"
    INDEX 01 01:13:71
  TRACK 85 AUDIO
    TITLE "6:cjc113_6007"
    INDEX 01 01:14:39
  TRACK 86 AUDIO
    TITLE "0:"
    INDEX 01 01:15:66
  TRACK 87 AUDIO
    TITLE "6:cjc113_6008"
    INDEX 01 01:16:01
  TRACK 88 AUDIO
    TITLE "0:"
    INDEX 01 01:17:16
  TRACK 89 AUDIO
    TITLE "6:cjc113_6009"
    INDEX 01 01:17:57
  TRACK 90 AUDIO
    TITLE "0:"
    INDEX 01 01:18:68
  TRACK 91 AUDIO
    TITLE "6:cjc113_6010"
    INDEX 01 01:18:74
  TRACK 92 AUDIO
    TITLE "0:"
    INDEX 01 01:20:18
  TRACK 93 AUDIO
    TITLE "6:cjc113_6011"
    INDEX 01 01:20:57
  TRACK 94 AUDIO
    TITLE "0:"
    INDEX 01 01:22:11
  TRACK 95 AUDIO
    TITLE "6:cjc113_6012"
    INDEX 01 01:22:15
  TRACK 96 AUDIO
    TITLE "0:"
    INDEX 01 01:23:30
  TRACK 97 AUDIO
    TITLE "6:cjc113_6013"
    INDEX 01 01:23:73
  TRACK 98 AUDIO
    TITLE "0:"
    INDEX 01 01:25:27
  TRACK 99 AUDIO
    TITLE "6:cjc113_6014"
    INDEX 01 01:25:35
  TRACK 100 AUDIO
    TITLE "0:"
    INDEX 01 01:27:04
  TRACK 101 AUDIO
    TITLE "6:cjc113_6015"
    INDEX 01 01:27:42
  TRACK 102 AUDIO
    TITLE "0:"
    INDEX 01 01:28:55
  TRACK 103 AUDIO
    TITLE "6:cjc113_6016"
    INDEX 01 01:28:65
  TRACK 104 AUDIO
    TITLE "0:"
    INDEX 01 01:30:05
  TRACK 105 AUDIO
    TITLE "6:cjc113_6017"
    INDEX 01 01:30:48
  TRACK 106 AUDIO
    TITLE "0:"
    INDEX 01 01:31:55
  TRACK 107 AUDIO
    TITLE "6:cjc113_6018"
    INDEX 01 01:31:63
  TRACK 108 AUDIO
    TITLE "0:"
    INDEX 01 01:33:13
  TRACK 109 AUDIO
    TITLE "6:cjc113_6019"
    INDEX 01 01:33:52
  TRACK 110 AUDIO
    TITLE "0:"
    INDEX 01 01:34:71
  TRACK 111 AUDIO
    TITLE "6:cjc113_6020"
    INDEX 01 01:35:04
  TRACK 112 AUDIO
    TITLE "0:"
    INDEX 01 01:36:19
  TRACK 113 AUDIO
    TITLE "6:cjc113_6021"
    INDEX 01 01:36:56
  TRACK 114 AUDIO
    TITLE "0:"
    INDEX 01 01:38:08
  TRACK 115 AUDIO
    TITLE "6:cjc113_6022"
    INDEX 01 01:38:18
  TRACK 116 AUDIO
    TITLE "0:"
    INDEX 01 01:39:39
  TRACK 117 AUDIO
    TITLE "6:cjc113_6023"
    INDEX 01 01:40:05
  TRACK 118 AUDIO
    TITLE "0:"
    INDEX 01 01:41:34
  TRACK 119 AUDIO
    TITLE "6:cjc113_6024"
    INDEX 01 01:41:40
  TRACK 120 AUDIO
    TITLE "0:"
    INDEX 01 01:42:61
  TRACK 121 AUDIO
    TITLE "6:cjc113_6025"
    INDEX 01 01:43:25
  TRACK 122 AUDIO
    TITLE "0:"
    INDEX 01 01:44:56
  TRACK 123 AUDIO
    TITLE "6:cjc113_6026"
    INDEX 01 01:44:64
  TRACK 124 AUDIO
    TITLE "0:"
    INDEX 01 01:47:58
  TRACK 125 AUDIO
    TITLE "6:cjc113_6027"
    INDEX 01 01:48:52
  TRACK 126 AUDIO
    TITLE "0:"
    INDEX 01 01:49:51
  TRACK 127 AUDIO
    TITLE "6:cjc113_6028"
    INDEX 01 01:49:57
  TRACK 128 AUDIO
    TITLE "0:"
    INDEX 01 01:52:49
  TRACK 129 AUDIO
    TITLE "6:cjc113_6029"
    INDEX 01 01:53:57
  TRACK 130 AUDIO
    TITLE "0:"
    INDEX 01 01:54:72
  TRACK 131 AUDIO
    TITLE "6:cjc113_6030"
    INDEX 01 01:55:03
  TRACK 132 AUDIO
    TITLE "0:"
    INDEX 01 01:57:72
  TRACK 133 AUDIO
    TITLE "6:cjc113_6031"
    INDEX 01 01:58:36
  TRACK 134 AUDIO
    TITLE "0:"
    INDEX 01 01:59:61
  TRACK 135 AUDIO
    TITLE "6:cjc113_6032"
    INDEX 01 01:59:69
  TRACK 136 AUDIO
    TITLE "0:"
    INDEX 01 02:01:21
  TRACK 137 AUDIO
    TITLE "6:cjc113_6033"
    INDEX 01 02:02:17
  TRACK 138 AUDIO
    TITLE "0:"
    INDEX 01 02:03:30
  TRACK 139 AUDIO
    TITLE "6:cjc113_6034"
    INDEX 01 02:03:39
  TRACK 140 AUDIO
    TITLE "0:"
    INDEX 01 02:04:51
  TRACK 141 AUDIO
    TITLE "6:cjc113_6035"
    INDEX 01 02:05:17
  TRACK 142 AUDIO
    TITLE "0:"
    INDEX 01 02:06:32
  TRACK 143 AUDIO
    TITLE "6:cjc113_6036"
    INDEX 01 02:06:38
  TRACK 144 AUDIO
    TITLE "0:"
    INDEX 01 02:07:63
  TRACK 145 AUDIO
    TITLE "6:cjc113_6037"
    INDEX 01 02:08:29
  TRACK 146 AUDIO
    TITLE "0:"
    INDEX 01 02:10:14
  TRACK 147 AUDIO
    TITLE "6:cjc113_6038"
    INDEX 01 02:10:22
  TRACK 148 AUDIO
    TITLE "0:"
    INDEX 01 02:11:53
  TRACK 149 AUDIO
    TITLE "6:cjc113_6039"
    INDEX 01 02:12:19
  TRACK 150 AUDIO
    TITLE "0:"
    INDEX 01 02:13:30
  TRACK 151 AUDIO
    TITLE "6:cjc113_6040"
    INDEX 01 02:13:38
  TRACK 152 AUDIO
    TITLE "0:"
    INDEX 01 02:14:35
  TRACK 153 AUDIO
    TITLE "6:cjc113_6041"
    INDEX 01 02:15:00
  TRACK 154 AUDIO
    TITLE "0:"
    INDEX 01 02:16:30
  TRACK 155 AUDIO
    TITLE "6:cjc113_6042"
    INDEX 01 02:16:36
  TRACK 156 AUDIO
    TITLE "0:"
    INDEX 01 02:19:39
  TRACK 157 AUDIO
    TITLE "6:cjc113_6043"
    INDEX 01 02:20:03
  TRACK 158 AUDIO
    TITLE "0:"
    INDEX 01 02:21:39
  TRACK 159 AUDIO
    TITLE "6:cjc113_6044"
    INDEX 01 02:21:47
  TRACK 160 AUDIO
    TITLE "0:"
    INDEX 01 02:24:18
  TRACK 161 AUDIO
    TITLE "6:cjc113_6045"
    INDEX 01 02:24:59
  TRACK 162 AUDIO
    TITLE "0:"
    INDEX 01 02:25:74
  TRACK 163 AUDIO
    TITLE "6:cjc113_6046"
    INDEX 01 02:26:09
  TRACK 164 AUDIO
    TITLE "0:"
    INDEX 01 02:27:24
  TRACK 165 AUDIO
    TITLE "6:cjc113_6047"
    INDEX 01 02:27:67
  TRACK 166 AUDIO
    TITLE "0:"
    INDEX 01 02:29:19
  TRACK 167 AUDIO
    TITLE "6:cjc113_6048"
    INDEX 01 02:29:25
  TRACK 168 AUDIO
    TITLE "0:"
    INDEX 01 02:32:16
  TRACK 169 AUDIO
    TITLE "6:cjc113_6049"
    INDEX 01 02:32:57
  TRACK 170 AUDIO
    TITLE "0:"
    INDEX 01 02:33:52
  TRACK 171 AUDIO
    TITLE "6:cjc113_6050"
    INDEX 01 02:33:72
  TRACK 172 AUDIO
    TITLE "0:"
    INDEX 01 02:36:19
  TRACK 173 AUDIO
    TITLE "6:cjc113_6051"
    INDEX 01 02:36:60
  TRACK 174 AUDIO
    TITLE "0:"
    INDEX 01 02:38:10
  TRACK 175 AUDIO
    TITLE "6:cjc113_6052"
    INDEX 01 02:38:16
  TRACK 176 AUDIO
    TITLE "0:"
    INDEX 01 02:40:50
  TRACK 177 AUDIO
    TITLE "6:cjc113_6053"
    INDEX 01 02:41:17
  TRACK 178 AUDIO
    TITLE "0:"
    INDEX 01 02:42:28
  TRACK 179 AUDIO
    TITLE "6:cjc113_6054"
    INDEX 01 02:42:36
  TRACK 180 AUDIO
    TITLE "0:"
    INDEX 01 02:43:55
  TRACK 181 AUDIO
    TITLE "6:cjc113_6055"
    INDEX 01 02:44:25
  TRACK 182 AUDIO
    TITLE "0:"
    INDEX 01 02:45:46
  TRACK 183 AUDIO
    TITLE "6:cjc113_6056"
    INDEX 01 02:45:54
  TRACK 184 AUDIO
    TITLE "0:"
    INDEX 01 02:48:17
  TRACK 185 AUDIO
    TITLE "6:cjc113_6057"
    INDEX 01 02:48:62
  TRACK 186 AUDIO
    TITLE "0:"
    INDEX 01 02:49:67
  TRACK 187 AUDIO
    TITLE "6:cjc113_6058"
    INDEX 01 02:50:00
  TRACK 188 AUDIO
    TITLE "0:"
    INDEX 01 02:52:60
  TRACK 189 AUDIO
    TITLE "6:cjc113_6059"
    INDEX 01 02:53:28
  TRACK 190 AUDIO
    TITLE "0:"
    INDEX 01 02:54:37
  TRACK 191 AUDIO
    TITLE "6:cjc113_6060"
    INDEX 01 02:54:45
  TRACK 192 AUDIO
    TITLE "0:"
    INDEX 01 02:55:52
  TRACK 193 AUDIO
    TITLE "6:cjc113_6061"
    INDEX 01 02:56:20
  TRACK 194 AUDIO
    TITLE "0:"
    INDEX 01 02:57:33
  TRACK 195 AUDIO
    TITLE "6:cjc113_6062"
    INDEX 01 02:57:39
  TRACK 196 AUDIO
    TITLE "0:"
    INDEX 01 02:59:11
  TRACK 197 AUDIO
    TITLE "6:cjc113_6063"
    INDEX 01 02:59:56
  TRACK 198 AUDIO
    TITLE "0:"
    INDEX 01 03:00:69
  TRACK 199 AUDIO
    TITLE "6:cjc113_6064"
    INDEX 01 03:01:02
  TRACK 200 AUDIO
    TITLE "0:"
    INDEX 01 03:02:38
  TRACK 201 AUDIO
    TITLE "6:cjc113_6065"
    INDEX 01 03:03:06
  TRACK 202 AUDIO
    TITLE "0:"
    INDEX 01 03:04:18
  TRACK 203 AUDIO
    TITLE "6:cjc113_6066"
    INDEX 01 03:04:27
  TRACK 204 AUDIO
    TITLE "0:"
    INDEX 01 03:06:05
  TRACK 205 AUDIO
    TITLE "6:cjc113_6067"
    INDEX 01 03:06:46
  TRACK 206 AUDIO
    TITLE "0:"
    INDEX 01 03:07:61
  TRACK 207 AUDIO
    TITLE "6:cjc113_6068"
    INDEX 01 03:07:67
  TRACK 208 AUDIO
    TITLE "0:"
    INDEX 01 03:09:07
  TRACK 209 AUDIO
    TITLE "6:cjc113_6069"
    INDEX 01 03:09:50
  TRACK 210 AUDIO
    TITLE "0:"
    INDEX 01 03:10:69
  TRACK 211 AUDIO
    TITLE "6:cjc113_6070"
    INDEX 01 03:11:02
  TRACK 212 AUDIO
    TITLE "0:"
    INDEX 01 03:13:40
  TRACK 213 AUDIO
    TITLE "6:cjc113_6071"
    INDEX 01 03:14:08
  TRACK 214 AUDIO
    TITLE "0:"
    INDEX 01 03:15:35
  TRACK 215 AUDIO
    TITLE "6:cjc113_6072"
    INDEX 01 03:15:45
  TRACK 216 AUDIO
    TITLE "0:"
    INDEX 01 03:17:09
  TRACK 217 AUDIO
    TITLE "6:cjc113_6073"
    INDEX 01 03:17:50
  TRACK 218 AUDIO
    TITLE "0:"
    INDEX 01 03:18:61
  TRACK 219 AUDIO
    TITLE "6:cjc113_6074"
    INDEX 01 03:18:71
  TRACK 220 AUDIO
    TITLE "0:"
    INDEX 01 03:20:09
  TRACK 221 AUDIO
    TITLE "6:cjc113_6075"
    INDEX 01 03:20:50
  TRACK 222 AUDIO
    TITLE "0:"
    INDEX 01 03:21:67
  TRACK 223 AUDIO
    TITLE "6:cjc113_6076"
    INDEX 01 03:22:00
  TRACK 224 AUDIO
    TITLE "0:"
    INDEX 01 03:23:33
  TRACK 225 AUDIO
    TITLE "6:cjc113_6077"
    INDEX 01 03:24:01
  TRACK 226 AUDIO
    TITLE "0:"
    INDEX 01 03:25:10
  TRACK 227 AUDIO
    TITLE "6:cjc113_6078"
    INDEX 01 03:25:18
  TRACK 228 AUDIO
    TITLE "0:"
    INDEX 01 03:26:41
  TRACK 229 AUDIO
    TITLE "6:cjc113_6079"
    INDEX 01 03:27:07
  TRACK 230 AUDIO
    TITLE "0:"
    INDEX 01 03:28:30
  TRACK 231 AUDIO
    TITLE "6:cjc113_6080"
    INDEX 01 03:28:34
  TRACK 232 AUDIO
    TITLE "0:"
    INDEX 01 03:30:01
  TRACK 233 AUDIO
    TITLE "6:cjc113_6081"
    INDEX 01 03:30:41
  TRACK 234 AUDIO
    TITLE "0:"
    INDEX 01 03:32:02
  TRACK 235 AUDIO
    TITLE "6:cjc113_6082"
    INDEX 01 03:32:10
  TRACK 236 AUDIO
    TITLE "0:"
    INDEX 01 03:33:47
  TRACK 237 AUDIO
    TITLE "6:cjc113_6083"
    INDEX 01 03:34:15
  TRACK 238 AUDIO
    TITLE "0:"
    INDEX 01 03:35:28
  TRACK 239 AUDIO
    TITLE "6:cjc113_6084"
    INDEX 01 03:35:36
  TRACK 240 AUDIO
    TITLE "0:"
    INDEX 01 03:36:63
  TRACK 241 AUDIO
    TITLE "6:cjc113_6085"
    INDEX 01 03:37:31
  TRACK 242 AUDIO
    TITLE "0:"
    INDEX 01 03:38:44
  TRACK 243 AUDIO
    TITLE "6:cjc113_6086"
    INDEX 01 03:38:46
  TRACK 244 AUDIO
    TITLE "0:"
    INDEX 01 03:39:63
  TRACK 245 AUDIO
    TITLE "6:cjc113_6087"
    INDEX 01 03:40:25
  TRACK 246 AUDIO
    TITLE "0:"
    INDEX 01 03:41:58
  TRACK 247 AUDIO
    TITLE "6:cjc113_6088"
    INDEX 01 03:41:68
  TRACK 248 AUDIO
    TITLE "0:"
    INDEX 01 03:44:31
  TRACK 249 AUDIO
    TITLE "6:cjc113_6089"
    INDEX 01 03:44:72
  TRACK 250 AUDIO
    TITLE "0:"
    INDEX 01 03:46:20
  TRACK 251 AUDIO
    TITLE "6:cjc113_6090"
    INDEX 01 03:46:24
  TRACK 252 AUDIO
    TITLE "0:"
    INDEX 01 03:47:63
  TRACK 253 AUDIO
    TITLE "6:cjc113_6091"
    INDEX 01 03:48:31
  TRACK 254 AUDIO
    TITLE "0:"
    INDEX 01 03:49:36
  TRACK 255 AUDIO
    TITLE "6:cjc113_6092"
    INDEX 01 03:49:42
  TRACK 256 AUDIO
    TITLE "0:"
    INDEX 01 03:51:09
  TRACK 257 AUDIO
    TITLE "6:cjc113_6093"
    INDEX 01 03:51:52
  TRACK 258 AUDIO
    TITLE "0:"
    INDEX 01 03:52:60
  TRACK 259 AUDIO
    TITLE "6:cjc113_6094"
    INDEX 01 03:52:68
  TRACK 260 AUDIO
    TITLE "0:"
    INDEX 01 03:54:08
  TRACK 261 AUDIO
    TITLE "6:cjc113_6095"
    INDEX 01 03:54:47
  TRACK 262 AUDIO
    TITLE "0:"
    INDEX 01 03:56:28
  TRACK 263 AUDIO
    TITLE "6:cjc113_6096"
    INDEX 01 03:56:34
  TRACK 264 AUDIO
    TITLE "0:"
    INDEX 01 03:59:07
  TRACK 265 AUDIO
    TITLE "6:cjc113_6097"
    INDEX 01 03:59:48
  TRACK 266 AUDIO
    TITLE "0:"
    INDEX 01 04:01:06
  TRACK 267 AUDIO
    TITLE "6:cjc113_6098"
    INDEX 01 04:01:21
  TRACK 268 AUDIO
    TITLE "0:"
    INDEX 01 04:03:38
  TRACK 269 AUDIO
    TITLE "6:cjc113_6099"
    INDEX 01 04:04:06
  TRACK 270 AUDIO
    TITLE "0:"
    INDEX 01 04:05:53
  TRACK 271 AUDIO
    TITLE "6:cjc113_6100"
    INDEX 01 04:05:62
  TRACK 272 AUDIO
    TITLE "0:"
    INDEX 01 04:08:45
  TRACK 273 AUDIO
    TITLE "6:cjc113_6101"
    INDEX 01 04:09:13
  TRACK 274 AUDIO
    TITLE "0:"
    INDEX 01 04:11:22
  TRACK 275 AUDIO
    TITLE "6:cjc113_6102"
    INDEX 01 04:11:28
  TRACK 276 AUDIO
    TITLE "0:"
    INDEX 01 04:14:46
  TRACK 277 AUDIO
    TITLE "6:cjc113_6103"
    INDEX 01 04:15:12
  TRACK 278 AUDIO
    TITLE "0:"
    INDEX 01 04:17:42
  TRACK 279 AUDIO
    TITLE "6:cjc113_6104"
    INDEX 01 04:17:50
  TRACK 280 AUDIO
    TITLE "0:"
    INDEX 01 04:20:27
  TRACK 281 AUDIO
    TITLE "6:cjc113_6105"
    INDEX 01 04:20:70
  TRACK 282 AUDIO
    TITLE "0:"
    INDEX 01 04:23:74
  TRACK 283 AUDIO
    TITLE "6:cjc113_6106"
    INDEX 01 04:24:07
  TRACK 284 AUDIO
    TITLE "0:"
    INDEX 01 04:26:53
  TRACK 285 AUDIO
    TITLE "6:cjc113_6107"
    INDEX 01 04:27:15
  TRACK 286 AUDIO
    TITLE "0:"
    INDEX 01 04:29:12
  TRACK 287 AUDIO
    TITLE "6:cjc113_6108"
    INDEX 01 04:29:20
  TRACK 288 AUDIO
    TITLE "0:"
    INDEX 01 04:32:24
  TRACK 289 AUDIO
    TITLE "6:cjc113_6109"
    INDEX 01 04:32:65
  TRACK 290 AUDIO
    TITLE "0:"
    INDEX 01 04:34:19
  TRACK 291 AUDIO
    TITLE "6:cjc113_6110"
    INDEX 01 04:34:27
  TRACK 292 AUDIO
    TITLE "0:"
    INDEX 01 04:36:32
  TRACK 293 AUDIO
    TITLE "6:cjc113_6111"
    INDEX 01 04:37:00
  TRACK 294 AUDIO
    TITLE "0:"
    INDEX 01 04:38:34
  TRACK 295 AUDIO
    TITLE "6:cjc113_6112"
    INDEX 01 04:38:42
  TRACK 296 AUDIO
    TITLE "0:"
    INDEX 01 04:40:14
  TRACK 297 AUDIO
    TITLE "6:cjc113_6113"
    INDEX 01 04:40:53
  TRACK 298 AUDIO
    TITLE "0:"
    INDEX 01 04:42:03
  TRACK 299 AUDIO
    TITLE "6:cjc113_6114"
    INDEX 01 04:42:11
  TRACK 300 AUDIO
    TITLE "0:"
    INDEX 01 04:44:12
  TRACK 301 AUDIO
    TITLE "6:cjc113_6115"
    INDEX 01 04:44:55
  TRACK 302 AUDIO
    TITLE "0:"
    INDEX 01 04:46:14
  TRACK 303 AUDIO
    TITLE "6:cjc113_6116"
    INDEX 01 04:46:22
  TRACK 304 AUDIO
    TITLE "0:"
    INDEX 01 04:48:41
  TRACK 305 AUDIO
    TITLE "6:cjc113_6117"
    INDEX 01 04:49:11
  TRACK 306 AUDIO
    TITLE "0:"
    INDEX 01 04:50:30
  TRACK 307 AUDIO
    TITLE "6:cjc113_6118"
    INDEX 01 04:50:38
  TRACK 308 AUDIO
    TITLE "0:"
    INDEX 01 04:52:03
  TRACK 309 AUDIO
    TITLE "6:cjc113_6119"
    INDEX 01 04:52:44
  TRACK 310 AUDIO
    TITLE "0:"
    INDEX 01 04:54:26
  TRACK 311 AUDIO
    TITLE "6:cjc113_6120"
    INDEX 01 04:54:35
  TRACK 312 AUDIO
    TITLE "0:"
    INDEX 01 04:56:23
  TRACK 313 AUDIO
    TITLE "6:cjc113_6121"
    INDEX 01 04:56:68
  TRACK 314 AUDIO
    TITLE "0:"
    INDEX 01 04:58:08
  TRACK 315 AUDIO
    TITLE "6:cjc113_6122"
    INDEX 01 04:58:18
  TRACK 316 AUDIO
    TITLE "0:"
    INDEX 01 05:00:28
  TRACK 317 AUDIO
    TITLE "6:cjc113_6123"
    INDEX 01 05:00:67
  TRACK 318 AUDIO
    TITLE "0:"
    INDEX 01 05:03:21
  TRACK 319 AUDIO
    TITLE "6:cjc113_6124"
    INDEX 01 05:03:30
  TRACK 320 AUDIO
    TITLE "0:"
    INDEX 01 05:05:31
  TRACK 321 AUDIO
    TITLE "6:cjc113_6125"
    INDEX 01 05:05:72
  TRACK 322 AUDIO
    TITLE "0:"
    INDEX 01 05:07:54
  TRACK 323 AUDIO
    TITLE "6:cjc113_6126"
    INDEX 01 05:07:60
  TRACK 324 AUDIO
    TITLE "0:"
    INDEX 01 05:10:46
  TRACK 325 AUDIO
    TITLE "6:cjc113_6127"
    INDEX 01 05:11:10
  TRACK 326 AUDIO
    TITLE "0:"
    INDEX 01 05:12:39
  TRACK 327 AUDIO
    TITLE "6:cjc113_6128"
    INDEX 01 05:12:47
  TRACK 328 AUDIO
    TITLE "0:"
    INDEX 01 05:14:52
  TRACK 329 AUDIO
    TITLE "6:cjc113_6129"
    INDEX 01 05:15:20
  TRACK 330 AUDIO
    TITLE "0:"
    INDEX 01 05:18:10
  TRACK 331 AUDIO
    TITLE "6:cjc113_6130"
    INDEX 01 05:18:20
  TRACK 332 AUDIO
    TITLE "0:"
    INDEX 01 05:21:03
  TRACK 333 AUDIO
    TITLE "6:cjc113_6131"
    INDEX 01 05:21:44
  TRACK 334 AUDIO
    TITLE "0:"
    INDEX 01 05:22:71
  TRACK 335 AUDIO
    TITLE "6:cjc113_6132"
    INDEX 01 05:23:02
  TRACK 336 AUDIO
    TITLE "0:"
    INDEX 01 05:25:30
  TRACK 337 AUDIO
    TITLE "6:cjc113_6133"
    INDEX 01 05:25:73
  TRACK 338 AUDIO
    TITLE "0:"
    INDEX 01 05:27:23
  TRACK 339 AUDIO
    TITLE "6:cjc113_6134"
    INDEX 01 05:27:29
  TRACK 340 AUDIO
    TITLE "0:"
    INDEX 01 05:28:36
  TRACK 341 AUDIO
    TITLE "6:cjc113_6135"
    INDEX 01 05:29:02
  TRACK 342 AUDIO
    TITLE "0:"
    INDEX 01 05:30:45
  TRACK 343 AUDIO
    TITLE "6:cjc113_6136"
    INDEX 01 05:30:49
  TRACK 344 AUDIO
    TITLE "0:"
    INDEX 01 05:32:22
  TRACK 345 AUDIO
    TITLE "6:cjc113_6137"
    INDEX 01 05:32:65
  TRACK 346 AUDIO
    TITLE "0:"
    INDEX 01 05:34:72
  TRACK 347 AUDIO
    TITLE "6:cjc113_6138"
    INDEX 01 05:35:05
  TRACK 348 AUDIO
    TITLE "0:"
    INDEX 01 05:37:59
  TRACK 349 AUDIO
    TITLE "6:cjc113_6139"
    INDEX 01 05:38:25
  TRACK 350 AUDIO
    TITLE "0:"
    INDEX 01 05:39:58
  TRACK 351 AUDIO
    TITLE "6:cjc113_6140"
    INDEX 01 05:39:71
  TRACK 352 AUDIO
    TITLE "0:"
    INDEX 01 05:42:01
  TRACK 353 AUDIO
    TITLE "6:cjc113_6141"
    INDEX 01 05:42:42
  TRACK 354 AUDIO
    TITLE "0:"
    INDEX 01 05:43:69
  TRACK 355 AUDIO
    TITLE "6:cjc113_6142"
    INDEX 01 05:44:00
  TRACK 356 AUDIO
    TITLE "0:"
    INDEX 01 05:46:22
  TRACK 357 AUDIO
    TITLE "6:cjc113_6143"
    INDEX 01 05:46:62
  TRACK 358 AUDIO
    TITLE "0:"
    INDEX 01 05:48:02
  TRACK 359 AUDIO
    TITLE "6:cjc113_6144"
    INDEX 01 05:48:15
  TRACK 360 AUDIO
    TITLE "0:"
    INDEX 01 05:50:10
  TRACK 361 AUDIO
    TITLE "6:cjc113_6145"
    INDEX 01 05:50:54
  TRACK 362 AUDIO
    TITLE "0:"
    INDEX 01 05:52:74
  TRACK 363 AUDIO
    TITLE "6:cjc113_6146"
    INDEX 01 05:53:05
  TRACK 364 AUDIO
    TITLE "0:"
    INDEX 01 05:55:21
  TRACK 365 AUDIO
    TITLE "6:cjc113_6147"
    INDEX 01 05:55:63
  TRACK 366 AUDIO
    TITLE "0:"
    INDEX 01 05:57:32
  TRACK 367 AUDIO
    TITLE "6:cjc113_6148"
    INDEX 01 05:57:36
  TRACK 368 AUDIO
    TITLE "0:"
    INDEX 01 05:59:56
  TRACK 369 AUDIO
    TITLE "6:cjc113_6149"
    INDEX 01 06:00:23
  TRACK 370 AUDIO
    TITLE "0:"
    INDEX 01 06:02:39
  TRACK 371 AUDIO
    TITLE "6:cjc113_6150"
    INDEX 01 06:02:47
  TRACK 372 AUDIO
    TITLE "0:"
    INDEX 01 06:04:71
  TRACK 373 AUDIO
    TITLE "6:cjc113_6151"
    INDEX 01 06:05:43
  TRACK 374 AUDIO
    TITLE "0:"
    INDEX 01 06:07:62
  TRACK 375 AUDIO
    TITLE "6:cjc113_6152"
    INDEX 01 06:07:70
  TRACK 376 AUDIO
    TITLE "0:"
    INDEX 01 06:09:55
  TRACK 377 AUDIO
    TITLE "6:cjc113_6153"
    INDEX 01 06:10:23
  TRACK 378 AUDIO
    TITLE "0:"
    INDEX 01 06:12:28
  TRACK 379 AUDIO
    TITLE "6:cjc113_6154"
    INDEX 01 06:12:36
  TRACK 380 AUDIO
    TITLE "0:"
    INDEX 01 06:15:10
  TRACK 381 AUDIO
    TITLE "6:cjc113_6155"
    INDEX 01 06:15:50
  TRACK 382 AUDIO
    TITLE "0:"
    INDEX 01 06:17:48
  TRACK 383 AUDIO
    TITLE "6:cjc113_6156"
    INDEX 01 06:17:60
  TRACK 384 AUDIO
    TITLE "0:"
    INDEX 01 06:19:59
  TRACK 385 AUDIO
    TITLE "6:cjc113_6157"
    INDEX 01 06:20:25
  TRACK 386 AUDIO
    TITLE "0:"
    INDEX 01 06:22:40
  TRACK 387 AUDIO
    TITLE "6:cjc113_6158"
    INDEX 01 06:22:46
  TRACK 388 AUDIO
    TITLE "0:"
    INDEX 01 06:24:37
  TRACK 389 AUDIO
    TITLE "6:cjc113_6159"
    INDEX 01 06:25:03
  TRACK 390 AUDIO
    TITLE "0:"
    INDEX 01 06:27:21
  TRACK 391 AUDIO
    TITLE "6:cjc113_6160"
    INDEX 01 06:27:25
  TRACK 392 AUDIO
    TITLE "0:"
    INDEX 01 06:29:26
  TRACK 393 AUDIO
    TITLE "6:cjc113_6161"
    INDEX 01 06:29:71
  TRACK 394 AUDIO
    TITLE "0:"
    INDEX 01 06:31:45
  TRACK 395 AUDIO
    TITLE "6:cjc113_6162"
    INDEX 01 06:31:51
  TRACK 396 AUDIO
    TITLE "0:"
    INDEX 01 06:33:36
  TRACK 397 AUDIO
    TITLE "6:cjc113_6163"
    INDEX 01 06:33:67
  TRACK 398 AUDIO
    TITLE "0:"
    INDEX 01 06:35:27
  TRACK 399 AUDIO
    TITLE "6:cjc113_6164"
    INDEX 01 06:35:31
  TRACK 400 AUDIO
    TITLE "0:"
    INDEX 01 06:36:60
  TRACK 401 AUDIO
    TITLE "6:cjc113_6165"
    INDEX 01 06:37:22
  TRACK 402 AUDIO
    TITLE "0:"
    INDEX 01 06:38:49
  TRACK 403 AUDIO
    TITLE "6:cjc113_6166"
    INDEX 01 06:38:54
  TRACK 404 AUDIO
    TITLE "0:"
    INDEX 01 06:39:68
  TRACK 405 AUDIO
    TITLE "6:cjc113_6167"
    INDEX 01 06:40:34
  TRACK 406 AUDIO
    TITLE "0:"
    INDEX 01 06:42:07
  TRACK 407 AUDIO
    TITLE "6:cjc113_6168"
    INDEX 01 06:42:17
  TRACK 408 AUDIO
    TITLE "0:"
    INDEX 01 06:44:32
  TRACK 409 AUDIO
    TITLE "6:cjc113_6169"
    INDEX 01 06:44:71
  TRACK 410 AUDIO
    TITLE "0:"
    INDEX 01 06:46:15
  TRACK 411 AUDIO
    TITLE "6:cjc113_6170"
    INDEX 01 06:46:27
  TRACK 412 AUDIO
    TITLE "0:"
    INDEX 01 06:48:65
  TRACK 413 AUDIO
    TITLE "6:cjc113_6171"
    INDEX 01 06:49:33
  TRACK 414 AUDIO
    TITLE "0:"
    INDEX 01 06:50:66
  TRACK 415 AUDIO
    TITLE "6:cjc113_6172"
    INDEX 01 06:50:69
  TRACK 416 AUDIO
    TITLE "0:"
    INDEX 01 06:52:59
  TRACK 417 AUDIO
    TITLE "6:cjc113_6173"
    INDEX 01 06:53:27
  TRACK 418 AUDIO
    TITLE "0:"
    INDEX 01 06:54:46
  TRACK 419 AUDIO
    TITLE "6:cjc113_6174"
    INDEX 01 06:54:55
  TRACK 420 AUDIO
    TITLE "0:"
    INDEX 01 06:56:50
  TRACK 421 AUDIO
    TITLE "6:cjc113_6175"
    INDEX 01 06:57:17
  TRACK 422 AUDIO
    TITLE "0:"
    INDEX 01 06:58:65
  TRACK 423 AUDIO
    TITLE "6:cjc113_6176"
    INDEX 01 06:58:69
  TRACK 424 AUDIO
    TITLE "0:"
    INDEX 01 07:01:09
  TRACK 425 AUDIO
    TITLE "6:cjc113_6177"
    INDEX 01 07:01:54
  TRACK 426 AUDIO
    TITLE "0:"
    INDEX 01 07:02:67
  TRACK 427 AUDIO
    TITLE "6:cjc113_6178"
    INDEX 01 07:02:73
  TRACK 428 AUDIO
    TITLE "0:"
    INDEX 01 07:05:02
  TRACK 429 AUDIO
    TITLE "6:cjc113_6179"
    INDEX 01 07:05:47
  TRACK 430 AUDIO
    TITLE "0:"
    INDEX 01 07:06:74
  TRACK 431 AUDIO
    TITLE "6:cjc113_6180"
    INDEX 01 07:07:07
  TRACK 432 AUDIO
    TITLE "0:"
    INDEX 01 07:08:52
  TRACK 433 AUDIO
    TITLE "6:cjc113_6181"
    INDEX 01 07:09:18
  TRACK 434 AUDIO
    TITLE "0:"
    INDEX 01 07:10:43
  TRACK 435 AUDIO
    TITLE "6:cjc113_6182"
    INDEX 01 07:10:51
  TRACK 436 AUDIO
    TITLE "0:"
    INDEX 01 07:11:72
  TRACK 437 AUDIO
    TITLE "6:cjc113_6183"
    INDEX 01 07:12:42
  TRACK 438 AUDIO
    TITLE "0:"
    INDEX 01 07:13:72
  TRACK 439 AUDIO
    TITLE "6:cjc113_6184"
    INDEX 01 07:14:05
  TRACK 440 AUDIO
    TITLE "0:"
    INDEX 01 07:16:16
  TRACK 441 AUDIO
    TITLE "6:cjc113_6185"
    INDEX 01 07:16:57
  TRACK 442 AUDIO
    TITLE "0:"
    INDEX 01 07:18:25
  TRACK 443 AUDIO
    TITLE "6:cjc113_6186"
    INDEX 01 07:18:34
  TRACK 444 AUDIO
    TITLE "0:"
    INDEX 01 07:20:51
  TRACK 445 AUDIO
    TITLE "6:cjc113_6187"
    INDEX 01 07:21:19
  TRACK 446 AUDIO
    TITLE "0:"
    INDEX 01 07:22:42
  TRACK 447 AUDIO
    TITLE "6:cjc113_6188"
    INDEX 01 07:22:48
  TRACK 448 AUDIO
    TITLE "0:"
    INDEX 01 07:23:73
  TRACK 449 AUDIO
    TITLE "6:cjc113_6189"
    INDEX 01 07:24:39
  TRACK 450 AUDIO
    TITLE "0:"
    INDEX 01 07:26:05
  TRACK 451 AUDIO
    TITLE "6:cjc113_6190"
    INDEX 01 07:26:14
  TRACK 452 AUDIO
    TITLE "0:"
    INDEX 01 07:28:25
  TRACK 453 AUDIO
    TITLE "6:cjc113_6191"
    INDEX 01 07:28:70
  TRACK 454 AUDIO
    TITLE "0:"
    INDEX 01 07:31:27
  TRACK 455 AUDIO
    TITLE "6:cjc113_6192"
    INDEX 01 07:31:33
  TRACK 456 AUDIO
    TITLE "0:"
    INDEX 01 07:35:13
  TRACK 457 AUDIO
    TITLE "6:cjc113_6193"
    INDEX 01 07:35:56
  TRACK 458 AUDIO
    TITLE "0:"
    INDEX 01 07:38:04
  TRACK 459 AUDIO
    TITLE "6:cjc113_6194"
    INDEX 01 07:38:12
  TRACK 460 AUDIO
    TITLE "0:"
    INDEX 01 07:40:67
  TRACK 461 AUDIO
    TITLE "6:cjc113_6195"
    INDEX 01 07:41:32
  TRACK 462 AUDIO
    TITLE "0:"
    INDEX 01 07:42:70
  TRACK 463 AUDIO
    TITLE "6:cjc113_6196"
    INDEX 01 07:43:05
  TRACK 464 AUDIO
    TITLE "0:"
    INDEX 01 07:44:48
  TRACK 465 AUDIO
    TITLE "6:cjc113_6197"
    INDEX 01 07:45:16
  TRACK 466 AUDIO
    TITLE "0:"
    INDEX 01 07:47:20
  TRACK 467 AUDIO
    TITLE "6:cjc113_6198"
    INDEX 01 07:47:26
  TRACK 468 AUDIO
    TITLE "0:"
    INDEX 01 07:50:44
  TRACK 469 AUDIO
    TITLE "6:cjc113_6199"
    INDEX 01 07:51:10
  TRACK 470 AUDIO
    TITLE "0:"
    INDEX 01 07:52:65
  TRACK 471 AUDIO
    TITLE "6:cjc113_6200"
    INDEX 01 07:52:71
  TRACK 472 AUDIO
    TITLE "0:"
    INDEX 01 07:55:08
  TRACK 473 AUDIO
    TITLE "6:cjc113_6201"
    INDEX 01 07:55:49
  TRACK 474 AUDIO
    TITLE "0:"
    INDEX 01 07:57:13
  TRACK 475 AUDIO
    TITLE "6:cjc113_6202"
    INDEX 01 07:57:19
  TRACK 476 AUDIO
    TITLE "0:"
    INDEX 01 07:58:71
  TRACK 477 AUDIO
    TITLE "6:cjc113_6203"
    INDEX 01 07:59:37
  TRACK 478 AUDIO
    TITLE "0:"
    INDEX 01 08:01:34
  TRACK 479 AUDIO
    TITLE "6:cjc113_6204"
    INDEX 01 08:01:40
  TRACK 480 AUDIO
    TITLE "0:"
    INDEX 01 08:03:55
  TRACK 481 AUDIO
    TITLE "6:cjc113_6205"
    INDEX 01 08:04:23
  TRACK 482 AUDIO
    TITLE "0:"
    INDEX 01 08:06:53
  TRACK 483 AUDIO
    TITLE "6:cjc113_6206"
    INDEX 01 08:06:59
  TRACK 484 AUDIO
    TITLE "0:"
    INDEX 01 08:08:60
  TRACK 485 AUDIO
    TITLE "6:cjc113_6207"
    INDEX 01 08:09:28
  TRACK 486 AUDIO
    TITLE "0:"
    INDEX 01 08:11:62
  TRACK 487 AUDIO
    TITLE "6:cjc113_6208"
    INDEX 01 08:11:70
  TRACK 488 AUDIO
    TITLE "0:"
    INDEX 01 08:15:42
  TRACK 489 AUDIO
    TITLE "6:cjc113_6209"
    INDEX 01 08:16:14
  TRACK 490 AUDIO
    TITLE "0:"
    INDEX 01 08:18:17
  TRACK 491 AUDIO
    TITLE "6:cjc113_6210"
    INDEX 01 08:18:23
  TRACK 492 AUDIO
    TITLE "0:"
    INDEX 01 08:20:20
  TRACK 493 AUDIO
    TITLE "6:cjc113_6211"
    INDEX 01 08:20:61
  TRACK 494 AUDIO
    TITLE "0:"
    INDEX 01 08:23:38
  TRACK 495 AUDIO
    TITLE "6:cjc113_6212"
    INDEX 01 08:23:44
  TRACK 496 AUDIO
    TITLE "0:"
    INDEX 01 08:25:62
  TRACK 497 AUDIO
    TITLE "6:cjc113_6213"
    INDEX 01 08:26:26
  TRACK 498 AUDIO
    TITLE "0:"
    INDEX 01 08:28:17
  TRACK 499 AUDIO
    TITLE "6:cjc113_6214"
    INDEX 01 08:28:25
  TRACK 500 AUDIO
    TITLE "0:"
    INDEX 01 08:29:54
  TRACK 501 AUDIO
    TITLE "6:cjc113_6215"
    INDEX 01 08:30:20
  TRACK 502 AUDIO
    TITLE "0:"
    INDEX 01 08:31:67
  TRACK 503 AUDIO
    TITLE "6:cjc113_6216"
    INDEX 01 08:31:71
  TRACK 504 AUDIO
    TITLE "0:"
    INDEX 01 08:34:12
  TRACK 505 AUDIO
    TITLE "6:cjc113_6217"
    INDEX 01 08:34:55
  TRACK 506 AUDIO
    TITLE "0:"
    INDEX 01 08:36:44
  TRACK 507 AUDIO
    TITLE "6:cjc113_6218"
    INDEX 01 08:36:46
  TRACK 508 AUDIO
    TITLE "0:"
    INDEX 01 08:39:07
  TRACK 509 AUDIO
    TITLE "6:cjc113_6219"
    INDEX 01 08:39:47
  TRACK 510 AUDIO
    TITLE "0:"
    INDEX 01 08:41:40
  TRACK 511 AUDIO
    TITLE "6:cjc113_6220"
    INDEX 01 08:41:47
  TRACK 512 AUDIO
    TITLE "0:"
    INDEX 01 08:44:50
  TRACK 513 AUDIO
    TITLE "6:cjc113_6221"
    INDEX 01 08:45:14
  TRACK 514 AUDIO
    TITLE "0:"
    INDEX 01 08:46:53
  TRACK 515 AUDIO
    TITLE "6:cjc113_6222"
    INDEX 01 08:46:60
  TRACK 516 AUDIO
    TITLE "0:"
    INDEX 01 08:49:06
  TRACK 517 AUDIO
    TITLE "6:cjc113_6223"
    INDEX 01 08:49:47
  TRACK 518 AUDIO
    TITLE "0:"
    INDEX 01 08:51:40
  TRACK 519 AUDIO
    TITLE "6:cjc113_6224"
    INDEX 01 08:51:48
  TRACK 520 AUDIO
    TITLE "0:"
    INDEX 01 08:54:23
  TRACK 521 AUDIO
    TITLE "6:cjc113_6225"
    INDEX 01 08:54:66
  TRACK 522 AUDIO
    TITLE "0:"
    INDEX 01 08:56:63
  TRACK 523 AUDIO
    TITLE "6:cjc113_6226"
    INDEX 01 08:56:71
  TRACK 524 AUDIO
    TITLE "0:"
    INDEX 01 08:59:28
  TRACK 525 AUDIO
    TITLE "6:cjc113_6227"
    INDEX 01 08:59:67
  TRACK 526 AUDIO
    TITLE "0:"
    INDEX 01 09:01:62
  TRACK 527 AUDIO
    TITLE "6:cjc113_6228"
    INDEX 01 09:01:70
  TRACK 528 AUDIO
    TITLE "0:"
    INDEX 01 09:04:39
  TRACK 529 AUDIO
    TITLE "6:cjc113_6229"
    INDEX 01 09:05:01
  TRACK 530 AUDIO
    TITLE "0:"
    INDEX 01 09:07:53
  TRACK 531 AUDIO
    TITLE "6:cjc113_6230"
    INDEX 01 09:07:57
  TRACK 532 AUDIO
    TITLE "0:"
    INDEX 01 09:10:04
  TRACK 533 AUDIO
    TITLE "6:cjc113_6231"
    INDEX 01 09:10:45
  TRACK 534 AUDIO
    TITLE "0:"
    INDEX 01 09:11:58
  TRACK 535 AUDIO
    TITLE "6:cjc113_6232"
    INDEX 01 09:11:64
  TRACK 536 AUDIO
    TITLE "0:"
    INDEX 01 09:13:20
  TRACK 537 AUDIO
    TITLE "6:cjc113_6233"
    INDEX 01 09:13:59
  TRACK 538 AUDIO
    TITLE "0:"
    INDEX 01 09:15:40
  TRACK 539 AUDIO
    TITLE "6:cjc113_6234"
    INDEX 01 09:15:50
  TRACK 540 AUDIO
    TITLE "0:"
    INDEX 01 09:17:49
  TRACK 541 AUDIO
    TITLE "6:cjc113_6235"
    INDEX 01 09:18:17
  TRACK 542 AUDIO
    TITLE "0:"
    INDEX 01 09:19:58
  TRACK 543 AUDIO
    TITLE "6:cjc113_6236"
    INDEX 01 09:19:68
  TRACK 544 AUDIO
    TITLE "0:"
    INDEX 01 09:21:65
  TRACK 545 AUDIO
    TITLE "6:cjc113_6237"
    INDEX 01 09:22:31
  TRACK 546 AUDIO
    TITLE "0:"
    INDEX 01 09:23:73
  TRACK 547 AUDIO
    TITLE "6:cjc113_6238"
    INDEX 01 09:24:08
  TRACK 548 AUDIO
    TITLE "0:"
    INDEX 01 09:25:58
  TRACK 549 AUDIO
    TITLE "6:cjc113_6239"
    INDEX 01 09:26:27
  TRACK 550 AUDIO
    TITLE "0:"
    INDEX 01 09:27:55
  TRACK 551 AUDIO
    TITLE "6:cjc113_6240"
    INDEX 01 09:27:61
  TRACK 552 AUDIO
    TITLE "0:"
    INDEX 01 09:29:25
  TRACK 553 AUDIO
    TITLE "6:cjc113_6241"
    INDEX 01 09:29:64
  TRACK 554 AUDIO
    TITLE "0:"
    INDEX 01 09:31:22
  TRACK 555 AUDIO
    TITLE "6:cjc113_6242"
    INDEX 01 09:31:30
  TRACK 556 AUDIO
    TITLE "0:"
    INDEX 01 09:33:54
  TRACK 557 AUDIO
    TITLE "6:cjc113_6243"
    INDEX 01 09:34:20
  TRACK 558 AUDIO
    TITLE "0:"
    INDEX 01 09:36:27
  TRACK 559 AUDIO
    TITLE "6:cjc113_6244"
    INDEX 01 09:36:35
  TRACK 560 AUDIO
    TITLE "0:"
    INDEX 01 09:39:17
  TRACK 561 AUDIO
    TITLE "6:cjc113_6245"
    INDEX 01 09:39:63
  TRACK 562 AUDIO
    TITLE "0:"
    INDEX 01 09:41:67
  TRACK 563 AUDIO
    TITLE "6:cjc113_6246"
    INDEX 01 09:42:00
  TRACK 564 AUDIO
    TITLE "0:"
    INDEX 01 09:44:72
  TRACK 565 AUDIO
    TITLE "6:cjc113_6247"
    INDEX 01 09:45:40
  TRACK 566 AUDIO
    TITLE "0:"
    INDEX 01 09:47:07
  TRACK 567 AUDIO
    TITLE "6:cjc113_6248"
    INDEX 01 09:47:13
  TRACK 568 AUDIO
    TITLE "0:"
    INDEX 01 09:49:53
  TRACK 569 AUDIO
    TITLE "6:cjc113_6249"
    INDEX 01 09:50:15
  TRACK 570 AUDIO
    TITLE "0:"
    INDEX 01 09:51:62
  TRACK 571 AUDIO
    TITLE "6:cjc113_6250"
    INDEX 01 09:51:70
  TRACK 572 AUDIO
    TITLE "0:"
    INDEX 01 09:54:70
  TRACK 573 AUDIO
    TITLE "6:cjc113_6251"
    INDEX 01 09:55:38
  TRACK 574 AUDIO
    TITLE "0:"
    INDEX 01 09:57:06
  TRACK 575 AUDIO
    TITLE "6:cjc113_6252"
    INDEX 01 09:57:15
  TRACK 576 AUDIO
    TITLE "0:"
    INDEX 01 09:58:72
  TRACK 577 AUDIO
    TITLE "6:cjc113_6253"
    INDEX 01 09:59:40
  TRACK 578 AUDIO
    TITLE "0:"
    INDEX 01 10:01:29
  TRACK 579 AUDIO
    TITLE "6:cjc113_6254"
    INDEX 01 10:01:35
  TRACK 580 AUDIO
    TITLE "0:"
    INDEX 01 10:03:67
  TRACK 581 AUDIO
    TITLE "6:cjc113_6255"
    INDEX 01 10:04:31
  TRACK 582 AUDIO
    TITLE "0:"
    INDEX 01 10:06:20
  TRACK 583 AUDIO
    TITLE "6:cjc113_6256"
    INDEX 01 10:06:28
  TRACK 584 AUDIO
    TITLE "0:"
    INDEX 01 10:08:54
  TRACK 585 AUDIO
    TITLE "6:cjc113_6257"
    INDEX 01 10:09:21
  TRACK 586 AUDIO
    TITLE "0:"
    INDEX 01 10:11:06
  TRACK 587 AUDIO
    TITLE "6:cjc113_6258"
    INDEX 01 10:11:17
  TRACK 588 AUDIO
    TITLE "0:"
    INDEX 01 10:12:58
  TRACK 589 AUDIO
    TITLE "6:cjc113_6259"
    INDEX 01 10:13:28
  TRACK 590 AUDIO
    TITLE "0:"
    INDEX 01 10:14:49
  TRACK 591 AUDIO
    TITLE "6:cjc113_6260"
    INDEX 01 10:14:55
  TRACK 592 AUDIO
    TITLE "0:"
    INDEX 01 10:17:28
  TRACK 593 AUDIO
    TITLE "6:cjc113_6261"
    INDEX 01 10:17:65
  TRACK 594 AUDIO
    TITLE "0:"
    INDEX 01 10:19:17
  TRACK 595 AUDIO
    TITLE "6:cjc113_6262"
    INDEX 01 10:19:23
  TRACK 596 AUDIO
    TITLE "0:"
    INDEX 01 10:21:24
  TRACK 597 AUDIO
    TITLE "6:cjc113_6263"
    INDEX 01 10:21:65
  TRACK 598 AUDIO
    TITLE "0:"
    INDEX 01 10:23:27
  TRACK 599 AUDIO
    TITLE "6:cjc113_6264"
    INDEX 01 10:23:30
  TRACK 600 AUDIO
    TITLE "0:"
    INDEX 01 10:25:37
  TRACK 601 AUDIO
    TITLE "6:cjc113_6265"
    INDEX 01 10:26:03
  TRACK 602 AUDIO
    TITLE "0:"
    INDEX 01 10:27:60
  TRACK 603 AUDIO
    TITLE "6:cjc113_6266"
    INDEX 01 10:27:69
  TRACK 604 AUDIO
    TITLE "0:"
    INDEX 01 10:30:07
  TRACK 605 AUDIO
    TITLE "6:cjc113_6267"
    INDEX 01 10:30:46
  TRACK 606 AUDIO
    TITLE "0:"
    INDEX 01 10:32:31
  TRACK 607 AUDIO
    TITLE "6:cjc113_6268"
    INDEX 01 10:32:37
  TRACK 608 AUDIO
    TITLE "0:"
    INDEX 01 10:34:54
  TRACK 609 AUDIO
    TITLE "6:cjc113_6269"
    INDEX 01 10:35:20
  TRACK 610 AUDIO
    TITLE "0:"
    INDEX 01 10:36:45
  TRACK 611 AUDIO
    TITLE "6:cjc113_6270"
    INDEX 01 10:36:53
  TRACK 612 AUDIO
    TITLE "0:"
    INDEX 01 10:38:32
